<?xml version="1.0"?>
<svg id="Layer_2" data-name="Layer 2" xmlns="http://www.w3.org/2000/svg" viewBox="0 0 1244.97 314.01">
  <defs>
    
  </defs>
  <g id="Layer_1-2" data-name="Layer 1">
    <g>
      <g>
        <path class="cls-3" d="M528.46,102.51c-5.87-7.63-13.3-13.49-22.29-17.6-9-4.11-18.28-6.16-27.86-6.16-11.73,0-22.34,2.2-31.82,6.6-9.49,4.4-17.6,10.41-24.34,18.04-6.75,7.63-11.98,16.57-15.69,26.84-3.72,10.27-5.57,21.26-5.57,33,0,10.95,1.76,21.31,5.28,31.09,3.52,9.78,8.6,18.38,15.25,25.81,6.64,7.43,14.76,13.3,24.34,17.6,9.58,4.3,20.43,6.45,32.55,6.45s22.39-2.44,31.38-7.33c8.99-4.89,16.62-11.73,22.88-20.53l23.76,17.89c-1.57,2.15-4.3,5.23-8.21,9.24-3.91,4.01-9.09,8.02-15.55,12.03-6.45,4.01-14.22,7.53-23.32,10.56s-19.6,4.55-31.53,4.55c-16.42,0-31.24-3.13-44.43-9.38-13.2-6.26-24.44-14.47-33.73-24.64-9.29-10.16-16.38-21.65-21.26-34.46-4.89-12.8-7.33-25.76-7.33-38.86,0-16.03,2.64-30.84,7.92-44.43,5.28-13.59,12.66-25.32,22.14-35.2,9.48-9.87,20.87-17.55,34.17-23.02,13.29-5.47,27.96-8.21,43.99-8.21,13.68,0,27.13,2.64,40.33,7.92,13.2,5.28,24,13.4,32.41,24.34l-23.46,17.89Z"></path>
        <path class="cls-3" d="M578.32,143.28c7.43-6.84,16.03-11.97,25.81-15.4,9.78-3.42,19.55-5.13,29.33-5.13s18.92,1.27,26.25,3.81c7.33,2.54,13.35,5.97,18.04,10.27,4.69,4.3,8.16,9.24,10.41,14.81,2.25,5.57,3.37,11.39,3.37,17.45v70.98c0,4.89.1,9.39.29,13.49.19,4.11.49,8.02.88,11.73h-23.46c-.59-7.04-.88-14.08-.88-21.12h-.59c-5.87,9-12.81,15.35-20.82,19.06-8.02,3.71-17.3,5.57-27.86,5.57-6.45,0-12.61-.88-18.48-2.64-5.87-1.76-11-4.4-15.4-7.92-4.4-3.52-7.87-7.87-10.41-13.05-2.54-5.18-3.81-11.19-3.81-18.04,0-8.99,2-16.52,6.01-22.58,4-6.06,9.48-11,16.42-14.81,6.94-3.81,15.05-6.55,24.34-8.21,9.29-1.66,19.21-2.49,29.77-2.49h19.36v-5.87c0-3.52-.69-7.04-2.05-10.56-1.37-3.52-3.42-6.69-6.16-9.53-2.74-2.83-6.16-5.08-10.27-6.75-4.11-1.66-9-2.49-14.66-2.49-5.09,0-9.53.49-13.34,1.47-3.81.98-7.29,2.2-10.41,3.67-3.13,1.47-5.97,3.18-8.51,5.13-2.54,1.96-4.98,3.81-7.33,5.57l-15.84-16.42ZM652.82,198.42c-6.26,0-12.66.34-19.21,1.03-6.55.69-12.51,2.01-17.89,3.96-5.38,1.96-9.78,4.69-13.2,8.21-3.42,3.52-5.13,8.02-5.13,13.49,0,8.02,2.69,13.78,8.07,17.3,5.38,3.52,12.66,5.28,21.85,5.28,7.23,0,13.39-1.22,18.48-3.67,5.08-2.44,9.19-5.62,12.32-9.53,3.12-3.91,5.38-8.26,6.74-13.05,1.37-4.79,2.05-9.53,2.05-14.22v-8.8h-14.08Z"></path>
        <path class="cls-3" d="M792.13,161.17c-3.13-3.91-6.99-7.19-11.58-9.83-4.6-2.64-10.22-3.96-16.86-3.96-6.26,0-11.69,1.32-16.28,3.96-4.6,2.64-6.89,6.5-6.89,11.59,0,4.11,1.32,7.43,3.96,9.97,2.64,2.54,5.76,4.6,9.38,6.16,3.62,1.57,7.48,2.74,11.59,3.52,4.11.78,7.62,1.47,10.56,2.05,5.67,1.37,11,3.03,15.98,4.99,4.99,1.96,9.29,4.5,12.91,7.63,3.62,3.13,6.45,6.94,8.51,11.44,2.05,4.5,3.08,9.97,3.08,16.42,0,7.82-1.66,14.52-4.99,20.09-3.33,5.57-7.62,10.12-12.9,13.64-5.28,3.52-11.29,6.06-18.04,7.62s-13.54,2.35-20.38,2.35c-11.54,0-21.66-1.76-30.36-5.28-8.7-3.52-16.48-9.97-23.32-19.36l19.94-16.42c4.3,4.3,9.09,8.11,14.37,11.44,5.28,3.33,11.73,4.99,19.36,4.99,3.32,0,6.69-.34,10.12-1.03,3.42-.68,6.45-1.76,9.09-3.23,2.64-1.47,4.79-3.32,6.45-5.57,1.66-2.25,2.49-4.84,2.49-7.77,0-3.91-1.22-7.13-3.67-9.68-2.45-2.54-5.38-4.55-8.8-6.01-3.42-1.47-7.04-2.64-10.85-3.52-3.81-.88-7.19-1.61-10.12-2.2-5.67-1.37-11.05-2.93-16.13-4.69-5.09-1.76-9.58-4.11-13.49-7.04-3.91-2.93-7.04-6.64-9.39-11.15-2.35-4.5-3.52-10.07-3.52-16.72,0-7.23,1.51-13.54,4.55-18.92,3.03-5.38,7.04-9.82,12.02-13.35,4.99-3.52,10.66-6.16,17.01-7.92,6.35-1.76,12.76-2.64,19.21-2.64,9.39,0,18.38,1.76,26.98,5.28,8.6,3.52,15.44,9.39,20.53,17.6l-20.53,15.55Z"></path>
        <path class="cls-3" d="M829.67,76.41c0-5.28,1.91-9.83,5.72-13.64,3.81-3.81,8.36-5.72,13.64-5.72s9.83,1.91,13.64,5.72c3.81,3.81,5.72,8.36,5.72,13.64s-1.91,9.82-5.72,13.64c-3.81,3.81-8.36,5.72-13.64,5.72s-9.82-1.91-13.64-5.72c-3.81-3.81-5.72-8.36-5.72-13.64ZM835.83,126.27h26.4v139.02h-26.4V126.27Z"></path>
        <path class="cls-3" d="M1009.75,265.29h-26.4v-21.41h-.59c-3.33,7.43-9.09,13.45-17.3,18.04-8.21,4.59-17.7,6.89-28.45,6.89-6.85,0-13.3-1.03-19.36-3.08-6.06-2.05-11.39-5.23-15.98-9.53-4.6-4.3-8.26-9.82-11-16.57-2.74-6.75-4.11-14.71-4.11-23.9v-89.45h26.4v82.12c0,6.45.88,11.98,2.64,16.57,1.76,4.6,4.11,8.31,7.04,11.14,2.93,2.84,6.31,4.89,10.12,6.16,3.81,1.27,7.77,1.91,11.88,1.91,5.47,0,10.56-.88,15.25-2.64s8.8-4.55,12.32-8.36,6.26-8.65,8.21-14.52c1.95-5.87,2.93-12.8,2.93-20.82v-71.56h26.4v139.02Z"></path>
        <path class="cls-3" d="M1034.97,126.27h24.64v21.7h.59c.59-1.95,2.1-4.4,4.55-7.33,2.44-2.93,5.57-5.72,9.39-8.36,3.81-2.64,8.31-4.89,13.49-6.75,5.18-1.86,10.9-2.79,17.16-2.79,10.36,0,19.06,2.15,26.1,6.45,7.04,4.3,12.8,10.76,17.3,19.36,4.49-8.6,10.85-15.05,19.06-19.36,8.21-4.3,16.52-6.45,24.93-6.45,10.75,0,19.55,1.76,26.4,5.28,6.84,3.52,12.22,8.17,16.13,13.93,3.91,5.77,6.6,12.32,8.07,19.65,1.47,7.33,2.2,14.91,2.2,22.73v80.95h-26.4v-77.43c0-5.28-.34-10.36-1.03-15.25-.69-4.89-2.1-9.19-4.25-12.91-2.15-3.71-5.18-6.69-9.09-8.95-3.91-2.25-9.09-3.37-15.55-3.37-12.71,0-21.8,3.91-27.28,11.73-5.48,7.82-8.21,17.89-8.21,30.21v75.96h-26.4v-72.74c0-6.64-.34-12.71-1.03-18.18-.69-5.47-2.05-10.22-4.11-14.22-2.05-4-4.99-7.13-8.8-9.39-3.81-2.25-8.95-3.37-15.4-3.37-4.69,0-9.24.93-13.64,2.79-4.4,1.86-8.26,4.65-11.59,8.36-3.33,3.72-5.97,8.46-7.92,14.22-1.96,5.77-2.93,12.57-2.93,20.38v72.15h-26.4V126.27Z"></path>
      </g>
      <path class="cls-2" d="M183.95,303.9l-67.22-132.72c-4.37-8.63-4.37-19.75,0-28.38l7.38-14.56L183.67,10.62C187.47,4.01,193.46.03,199.89.03h-10.86V0S86.55,0,86.55,0c-6.83,0-13.2,4.44-16.93,11.8L3.28,142.79c-4.37,8.62-4.37,19.75,0,28.38l66.34,130.98c3.73,7.37,10.1,11.81,16.93,11.81h96.16v.04h17.18c-6.28,0-12.14-3.79-15.95-10.11Z"></path>
      <line class="cls-1" x1="170.2" y1="37.21" x2="128.88" y2="118.8"></line>
      <path class="cls-3" d="M261.52,11.78c-5.06-7.35-13.68-11.78-22.93-11.78h-109.52c7.7,1.12,14.63,5.26,18.96,11.55l49.57,72.03h113.32l-49.41-71.8Z"></path>
      <path class="cls-4" d="M253.39,230.4h-55.75l-49.61,72.09c-4.26,6.19-11.04,10.28-18.59,11.48h109.14c9.25,0,17.88-4.43,22.93-11.78l49.41-71.8h-57.53Z"></path>
    </g>
  </g>
</svg>